<svg xmlns="http://www.w3.org/2000/svg" version="1.1" xmlns:xlink="http://www.w3.org/1999/xlink" xmlns:svgjs="http://svgjs.com/svgjs" width="1440" height="560" preserveAspectRatio="none" viewBox="0 0 1440 560"><g mask="url(&quot;#SvgjsMask1000&quot;)" fill="none"><rect width="1440" height="560" x="0" y="0" fill="#0e2a47"></rect><path d="M280 91.21C233.81 100.25 200.36 103.02 195.26 140C187.34 197.41 222.88 210.82 253.95 280C265.25 305.17 259.46 328.7 280 328.7C319.15 328.7 328.68 307.44 373.33 280C398.68 264.42 392.45 252.28 420 242.67C485.79 219.72 496.42 242.69 560 214.88C613.78 191.36 654.71 177.99 654.71 140C654.71 101.28 614.03 71.59 560 61.46C496.68 49.59 491.01 88.45 420 96C351.01 103.33 346.18 78.25 280 91.21" stroke="rgba(51, 121, 194, 0.58)" stroke-width="2"></path><path d="M700 242.67C691.46 242.67 687.54 260.87 676.67 280C637.14 349.53 592.92 357.23 599.2 420C604.59 473.89 660.54 513.33 700 513.33C728.68 513.33 733.71 468.06 735.49 420C738.02 351.39 722.61 349.88 708.62 280C704.86 261.22 707.43 242.67 700 242.67" stroke="rgba(51, 121, 194, 0.58)" stroke-width="2"></path><path d="M27.1 0C51.34 58.87 22.4 88.35 57.65 140C78.85 171.07 109.81 138.29 140 165.45C187.62 208.29 213.26 224.43 213.26 280C213.26 328.72 186.17 368.62 140 374.03C79.54 381.12 60.34 345.52 0 305C-9.66 298.51 0 292.5 0 280C0 210 0 210 0 140C0 70 -11.35 58.65 0 0C2.2 -11.35 22.52 -11.13 27.1 0" stroke="rgba(51, 121, 194, 0.58)" stroke-width="2"></path><path d="M280 38.18C255.65 31.85 242.94 11.25 242.94 0C242.94 -7.84 261.47 0 280 0C350 0 350 0 420 0C473.66 0 527.33 -11.02 527.33 0C527.33 11.98 476.19 37.33 420 46C352.53 56.42 344.18 54.85 280 38.18" stroke="rgba(51, 121, 194, 0.58)" stroke-width="2"></path><path d="M700 50.91C661.92 26.6 625.33 13.94 625.33 0C625.33 -11.52 662.66 0 700 0C770 0 770 0 840 0C888.38 0 936.76 -25.07 936.76 0C936.76 43.47 899.8 124.22 840 137.08C781.42 149.68 769.26 95.14 700 50.91" stroke="rgba(51, 121, 194, 0.58)" stroke-width="2"></path><path d="M1092 140C1106 126.45 1105.88 112.9 1120 112.9C1134.37 112.9 1135.49 125.47 1148.97 140C1205.49 200.94 1200.28 207.82 1260 263.85C1274.88 277.82 1278.5 273.59 1298.18 280C1348.5 296.4 1352.91 286.3 1400 309.47C1473.82 345.8 1477.85 349.94 1540 399C1547.85 405.2 1540 409.5 1540 420C1540 424.88 1544.07 427.33 1540 429.77C1474.07 469.33 1463.81 506.8 1400 504C1352.63 501.92 1350.19 468 1317.65 420C1280.19 364.75 1285.6 297.5 1260 297.5C1235.47 297.5 1237.44 358.34 1217.39 420C1194.76 489.59 1210.09 509.02 1174.63 560C1161.4 579.02 1147.32 560 1120 560C1050 560 1050 560 980 560C944.18 560 939.21 573.22 908.37 560C869.21 543.22 869.87 533.84 840 500C808.08 463.84 800.56 464.74 784.79 420C761.79 354.74 749.35 345.59 762.46 280C776.95 207.48 788.57 151.25 840 143.78C897.34 135.45 913.4 249.39 980 248.39C1039.4 247.5 1036 194.2 1092 140" stroke="rgba(51, 121, 194, 0.58)" stroke-width="2"></path><path d="M1349.44 140C1333.25 73.96 1326.34 50.12 1344.44 0C1351.62 -19.88 1372.22 0 1400 0C1470 0 1498.25 -28.25 1540 0C1568.25 19.11 1561.52 60.48 1540 94.71C1517.52 130.48 1486.63 107.36 1452 140C1416.63 173.34 1425.73 226.67 1400 226.67C1374.45 226.67 1361.03 187.3 1349.44 140" stroke="rgba(51, 121, 194, 0.58)" stroke-width="2"></path><path d="M254.07 420C267.8 413.93 265.53 408.34 280 404.78C348.49 387.93 355.89 373.73 420 379.17C445.49 381.34 435.86 404.62 459.2 420C505.86 450.75 514.68 438.58 560 471.43C611.25 508.58 652.34 534.28 652.34 560C652.34 578.56 606.17 560 560 560C494.24 560 484.7 572.49 428.48 560C414.7 556.94 424.67 528.89 420 528.89C415.25 528.89 423.76 556.86 409.63 560C353.76 572.41 344.82 560 280 560C210 560 210 560 140 560C96.62 560 53.24 578.9 53.24 560C53.24 532.24 88.96 502.25 140 466.67C189.37 432.25 197.8 444.88 254.07 420" stroke="rgba(51, 121, 194, 0.58)" stroke-width="2"></path><path d="M980 331.58C962.03 331.58 938 378.55 938 420C938 447.46 961.34 469.41 980 469.41C996.34 469.41 1008 446.17 1008 420C1008 377.26 997.03 331.58 980 331.58" stroke="rgba(51, 121, 194, 0.58)" stroke-width="2"></path><path d="M840 64.17C804.94 64.17 761.03 18.07 761.03 0C761.03 -14.02 800.51 0 840 0C862.64 0 885.29 -11.73 885.29 0C885.29 20.35 867.07 64.17 840 64.17" stroke="rgba(51, 121, 194, 0.58)" stroke-width="2"></path><path d="M1540 43.24C1485.95 43.24 1400 11.06 1400 0C1400 -10.56 1486.52 -16.52 1540 0C1556.52 5.1 1555.95 43.24 1540 43.24" stroke="rgba(51, 121, 194, 0.58)" stroke-width="2"></path><path d="M60 280C60 256.25 105.63 229.09 140 229.09C161.91 229.09 172.56 255.3 172.56 280C172.56 301.65 160.82 321.79 140 321.79C104.54 321.79 60 302.6 60 280" stroke="rgba(51, 121, 194, 0.58)" stroke-width="2"></path><path d="M816.31 280C817.06 256.99 824.06 238.38 840 238.38C862.46 238.38 891.44 251.34 893.1 280C896.69 342.15 874.8 352.01 850.5 420C848.25 426.3 844.64 428.57 840 428.57C836.43 428.57 834.89 425.11 834.08 420C823.05 350.82 814.1 347.8 816.31 280" stroke="rgba(51, 121, 194, 0.58)" stroke-width="2"></path><path d="M1080.8 280C1088.28 255.24 1101.1 242.31 1120 242.31C1137.59 242.31 1147.61 256.48 1153.79 280C1170.95 345.33 1176.11 352.75 1166.67 420C1159.22 473.06 1144.74 520.63 1120 520.63C1094.57 520.63 1075.1 473.85 1066.33 420C1055.5 353.54 1061.44 344.08 1080.8 280" stroke="rgba(51, 121, 194, 0.58)" stroke-width="2"></path><path d="M1386.27 420C1386.27 411.25 1391.68 401.58 1400 401.58C1411.51 401.58 1425.93 411.59 1425.93 420C1425.93 427.8 1411.91 434 1400 434C1392.08 434 1386.27 427.46 1386.27 420" stroke="rgba(51, 121, 194, 0.58)" stroke-width="2"></path><path d="M102.54 560C102.54 548.01 115.68 519.7 140 519.7C204.41 519.7 280 549.72 280 560C280 569.87 210 560 140 560C121.27 560 102.54 568.16 102.54 560" stroke="rgba(51, 121, 194, 0.58)" stroke-width="2"></path><path d="M534.55 560C534.55 555.32 548.01 542.86 560 542.86C569.67 542.86 577.87 555.02 577.87 560C577.87 563.59 568.93 560 560 560C547.28 560 534.55 563.89 534.55 560" stroke="rgba(51, 121, 194, 0.58)" stroke-width="2"></path></g><defs><mask id="SvgjsMask1000"><rect width="1440" height="560" fill="#ffffff"></rect></mask></defs></svg>