<svg xmlns="http://www.w3.org/2000/svg" version="1.1" xmlns:xlink="http://www.w3.org/1999/xlink" xmlns:svgjs="http://svgjs.com/svgjs" width="1440" height="560" preserveAspectRatio="none" viewBox="0 0 1440 560"><g clip-path="url(&quot;#SvgjsClipPath1006&quot;)" fill="none"><rect width="1440" height="560" x="0" y="0" fill="#0e2a47"></rect><circle r="93.335" cx="85.86" cy="19.29" stroke="#365aa3" stroke-opacity="0.25" stroke-width="2"></circle><circle r="93.335" cx="329.26" cy="329.88" stroke="#365aa3" stroke-opacity="0.25" stroke-width="2"></circle><circle r="93.335" cx="663.44" cy="802.11" stroke="#365aa3" stroke-opacity="0.25" stroke-width="2"></circle><circle r="146.965" cx="253.89" cy="27.43" stroke="#365aa3" stroke-opacity="0.25" stroke-width="2"></circle><circle r="165.125" cx="983.83" cy="336.78" stroke="#365aa3" stroke-opacity="0.25" stroke-width="2"></circle><circle r="174.495" cx="584.05" cy="22.1" stroke="#365aa3" stroke-opacity="0.25" stroke-width="2"></circle><circle r="82.595" cx="862.11" cy="247.44" stroke="#365aa3" stroke-opacity="0.25" stroke-width="2"></circle><circle r="105.11" cx="371.57" cy="370.56" stroke="#365aa3" stroke-opacity="0.25" stroke-width="2"></circle><circle r="57.025" cx="1275.36" cy="237.09" stroke="#365aa3" stroke-opacity="0.25" stroke-width="2"></circle><circle r="182.655" cx="904.15" cy="376.81" stroke="#365aa3" stroke-opacity="0.25" stroke-width="2"></circle><circle r="165.295" cx="216.01" cy="490.27" stroke="#365aa3" stroke-opacity="0.25" stroke-width="2"></circle><circle r="161.345" cx="1185" cy="142.81" stroke="#365aa3" stroke-opacity="0.25" stroke-width="2"></circle><circle r="75.915" cx="441.2" cy="299.57" stroke="#365aa3" stroke-opacity="0.25" stroke-width="2"></circle><circle r="171.15" cx="184.49" cy="12.07" stroke="#365aa3" stroke-opacity="0.25" stroke-width="2"></circle><circle r="125.45" cx="1168.32" cy="211.33" stroke="#365aa3" stroke-opacity="0.25" stroke-width="2"></circle><circle r="123.165" cx="96.94" cy="181.07" stroke="#365aa3" stroke-opacity="0.25" stroke-width="2"></circle><circle r="167.345" cx="407.57" cy="182.39" stroke="#365aa3" stroke-opacity="0.25" stroke-width="2"></circle><circle r="109.64" cx="1221.1" cy="213.3" stroke="#365aa3" stroke-opacity="0.25" stroke-width="2"></circle><circle r="122.31" cx="1431.22" cy="442.18" stroke="#365aa3" stroke-opacity="0.25" stroke-width="2"></circle><circle r="106.26" cx="424.83" cy="261.28" stroke="#365aa3" stroke-opacity="0.25" stroke-width="2"></circle><circle r="53.915" cx="824.35" cy="318.33" stroke="#365aa3" stroke-opacity="0.25" stroke-width="2"></circle><circle r="86.135" cx="1164.26" cy="422.05" stroke="#365aa3" stroke-opacity="0.25" stroke-width="2"></circle><circle r="185.94" cx="479.01" cy="292.51" stroke="#365aa3" stroke-opacity="0.25" stroke-width="2"></circle><circle r="119.035" cx="662.6" cy="255.77" stroke="#365aa3" stroke-opacity="0.25" stroke-width="2"></circle><circle r="103.825" cx="1192.08" cy="48.9" stroke="#365aa3" stroke-opacity="0.25" stroke-width="2"></circle><circle r="69.695" cx="326.54" cy="49.49" stroke="#365aa3" stroke-opacity="0.25" stroke-width="2"></circle><circle r="154.625" cx="718.4" cy="227.2" stroke="#365aa3" stroke-opacity="0.25" stroke-width="2"></circle><circle r="154.44" cx="448.91" cy="241.38" stroke="#365aa3" stroke-opacity="0.25" stroke-width="2"></circle><circle r="63.86" cx="905.01" cy="291.86" stroke="#365aa3" stroke-opacity="0.25" stroke-width="2"></circle><circle r="98.515" cx="650.28" cy="69.41" stroke="#365aa3" stroke-opacity="0.25" stroke-width="2"></circle><circle r="81.895" cx="469.75" cy="4.67" stroke="#365aa3" stroke-opacity="0.25" stroke-width="2"></circle><circle r="85.075" cx="395.42" cy="488.23" stroke="#365aa3" stroke-opacity="0.25" stroke-width="2"></circle><circle r="124.56" cx="856.62" cy="533.32" stroke="#365aa3" stroke-opacity="0.25" stroke-width="2"></circle><circle r="168.94" cx="1256.4" cy="258.03" stroke="#365aa3" stroke-opacity="0.25" stroke-width="2"></circle><circle r="90.135" cx="357.79" cy="80.28" stroke="#365aa3" stroke-opacity="0.25" stroke-width="2"></circle><circle r="74.27" cx="633.09" cy="326.05" stroke="#365aa3" stroke-opacity="0.25" stroke-width="2"></circle><circle r="146.525" cx="51.57" cy="366.98" stroke="#365aa3" stroke-opacity="0.25" stroke-width="2"></circle><circle r="71.675" cx="1275.66" cy="3.93" stroke="#365aa3" stroke-opacity="0.25" stroke-width="2"></circle><circle r="173.415" cx="306.92" cy="446.05" stroke="#365aa3" stroke-opacity="0.25" stroke-width="2"></circle><circle r="139.295" cx="1156.17" cy="505.95" stroke="#365aa3" stroke-opacity="0.25" stroke-width="2"></circle></g><defs><clipPath id="SvgjsClipPath1006"><rect width="1440" height="560" x="0" y="0"></rect></clipPath></defs></svg>